ISO-10303-21;
HEADER;
/* Generated by software containing ST-Developer
 * from STEP Tools, Inc. (www.steptools.com) 
 */

FILE_DESCRIPTION(
/* description */ (''),
/* implementation_level */ '2;1');

FILE_NAME(
/* name */ 'snapFit_prototype.step',
/* time_stamp */ '2026-08-11T17:14:21-04:00',
/* author */ (''),
/* organization */ (''),
/* preprocessor_version */ 'ST-DEVELOPER v20.1',
/* originating_system */ 'Autodesk Translation Framework v15.8.0.0',
/* authorisation */ '');

FILE_SCHEMA (('AUTOMOTIVE_DESIGN { 1 0 10303 214 3 1 1 }'));
ENDSEC;

DATA;
#10=MECHANICAL_DESIGN_GEOMETRIC_PRESENTATION_REPRESENTATION('',(#13,#14),
#804);
#11=SHAPE_REPRESENTATION_RELATIONSHIP('SRR','None',#810,#12);
#12=ADVANCED_BREP_SHAPE_REPRESENTATION('',(#15,#16),#803);
#13=STYLED_ITEM('',(#819),#15);
#14=STYLED_ITEM('',(#819),#16);
#15=MANIFOLD_SOLID_BREP('Body1',#507);
#16=MANIFOLD_SOLID_BREP('Body2',#508);
#17=FACE_BOUND('',#61,.T.);
#18=FACE_BOUND('',#65,.T.);
#19=FACE_OUTER_BOUND('',#47,.T.);
#20=FACE_OUTER_BOUND('',#48,.T.);
#21=FACE_OUTER_BOUND('',#49,.T.);
#22=FACE_OUTER_BOUND('',#50,.T.);
#23=FACE_OUTER_BOUND('',#51,.T.);
#24=FACE_OUTER_BOUND('',#52,.T.);
#25=FACE_OUTER_BOUND('',#53,.T.);
#26=FACE_OUTER_BOUND('',#54,.T.);
#27=FACE_OUTER_BOUND('',#55,.T.);
#28=FACE_OUTER_BOUND('',#56,.T.);
#29=FACE_OUTER_BOUND('',#57,.T.);
#30=FACE_OUTER_BOUND('',#58,.T.);
#31=FACE_OUTER_BOUND('',#59,.T.);
#32=FACE_OUTER_BOUND('',#60,.T.);
#33=FACE_OUTER_BOUND('',#62,.T.);
#34=FACE_OUTER_BOUND('',#63,.T.);
#35=FACE_OUTER_BOUND('',#64,.T.);
#36=FACE_OUTER_BOUND('',#66,.T.);
#37=FACE_OUTER_BOUND('',#67,.T.);
#38=FACE_OUTER_BOUND('',#68,.T.);
#39=FACE_OUTER_BOUND('',#69,.T.);
#40=FACE_OUTER_BOUND('',#70,.T.);
#41=FACE_OUTER_BOUND('',#71,.T.);
#42=FACE_OUTER_BOUND('',#72,.T.);
#43=FACE_OUTER_BOUND('',#73,.T.);
#44=FACE_OUTER_BOUND('',#74,.T.);
#45=FACE_OUTER_BOUND('',#75,.T.);
#46=FACE_OUTER_BOUND('',#76,.T.);
#47=EDGE_LOOP('',(#319,#320,#321,#322));
#48=EDGE_LOOP('',(#323,#324,#325,#326));
#49=EDGE_LOOP('',(#327,#328,#329,#330));
#50=EDGE_LOOP('',(#331,#332,#333,#334));
#51=EDGE_LOOP('',(#335,#336,#337,#338));
#52=EDGE_LOOP('',(#339,#340,#341,#342,#343,#344,#345));
#53=EDGE_LOOP('',(#346,#347,#348,#349));
#54=EDGE_LOOP('',(#350,#351,#352,#353));
#55=EDGE_LOOP('',(#354,#355,#356,#357));
#56=EDGE_LOOP('',(#358,#359,#360,#361));
#57=EDGE_LOOP('',(#362,#363,#364,#365));
#58=EDGE_LOOP('',(#366,#367,#368,#369));
#59=EDGE_LOOP('',(#370,#371,#372,#373,#374,#375,#376));
#60=EDGE_LOOP('',(#377,#378,#379,#380));
#61=EDGE_LOOP('',(#381,#382,#383,#384));
#62=EDGE_LOOP('',(#385,#386,#387,#388));
#63=EDGE_LOOP('',(#389,#390,#391,#392));
#64=EDGE_LOOP('',(#393,#394,#395,#396));
#65=EDGE_LOOP('',(#397,#398,#399,#400));
#66=EDGE_LOOP('',(#401,#402,#403,#404));
#67=EDGE_LOOP('',(#405,#406,#407,#408));
#68=EDGE_LOOP('',(#409,#410,#411,#412,#413,#414,#415));
#69=EDGE_LOOP('',(#416,#417,#418,#419));
#70=EDGE_LOOP('',(#420,#421,#422,#423));
#71=EDGE_LOOP('',(#424,#425,#426,#427));
#72=EDGE_LOOP('',(#428,#429,#430,#431));
#73=EDGE_LOOP('',(#432,#433,#434,#435));
#74=EDGE_LOOP('',(#436,#437,#438,#439));
#75=EDGE_LOOP('',(#440,#441,#442,#443,#444,#445,#446));
#76=EDGE_LOOP('',(#447,#448,#449,#450));
#77=LINE('',#666,#143);
#78=LINE('',#668,#144);
#79=LINE('',#670,#145);
#80=LINE('',#671,#146);
#81=LINE('',#674,#147);
#82=LINE('',#676,#148);
#83=LINE('',#677,#149);
#84=LINE('',#680,#150);
#85=LINE('',#681,#151);
#86=LINE('',#684,#152);
#87=LINE('',#685,#153);
#88=LINE('',#687,#154);
#89=LINE('',#691,#155);
#90=LINE('',#693,#156);
#91=LINE('',#695,#157);
#92=LINE('',#697,#158);
#93=LINE('',#699,#159);
#94=LINE('',#701,#160);
#95=LINE('',#702,#161);
#96=LINE('',#705,#162);
#97=LINE('',#707,#163);
#98=LINE('',#708,#164);
#99=LINE('',#711,#165);
#100=LINE('',#712,#166);
#101=LINE('',#715,#167);
#102=LINE('',#716,#168);
#103=LINE('',#719,#169);
#104=LINE('',#720,#170);
#105=LINE('',#723,#171);
#106=LINE('',#724,#172);
#107=LINE('',#727,#173);
#108=LINE('',#728,#174);
#109=LINE('',#730,#175);
#110=LINE('',#735,#176);
#111=LINE('',#737,#177);
#112=LINE('',#739,#178);
#113=LINE('',#740,#179);
#114=LINE('',#743,#180);
#115=LINE('',#745,#181);
#116=LINE('',#746,#182);
#117=LINE('',#749,#183);
#118=LINE('',#750,#184);
#119=LINE('',#753,#185);
#120=LINE('',#755,#186);
#121=LINE('',#757,#187);
#122=LINE('',#758,#188);
#123=LINE('',#761,#189);
#124=LINE('',#762,#190);
#125=LINE('',#764,#191);
#126=LINE('',#767,#192);
#127=LINE('',#769,#193);
#128=LINE('',#771,#194);
#129=LINE('',#773,#195);
#130=LINE('',#775,#196);
#131=LINE('',#776,#197);
#132=LINE('',#779,#198);
#133=LINE('',#781,#199);
#134=LINE('',#782,#200);
#135=LINE('',#785,#201);
#136=LINE('',#786,#202);
#137=LINE('',#789,#203);
#138=LINE('',#790,#204);
#139=LINE('',#793,#205);
#140=LINE('',#794,#206);
#141=LINE('',#796,#207);
#142=LINE('',#798,#208);
#143=VECTOR('',#542,10.);
#144=VECTOR('',#543,10.);
#145=VECTOR('',#544,10.);
#146=VECTOR('',#545,10.);
#147=VECTOR('',#548,10.);
#148=VECTOR('',#549,10.);
#149=VECTOR('',#550,10.);
#150=VECTOR('',#553,10.);
#151=VECTOR('',#554,10.);
#152=VECTOR('',#557,10.);
#153=VECTOR('',#558,10.);
#154=VECTOR('',#561,10.);
#155=VECTOR('',#564,10.);
#156=VECTOR('',#565,10.);
#157=VECTOR('',#566,10.);
#158=VECTOR('',#567,10.);
#159=VECTOR('',#568,10.);
#160=VECTOR('',#569,10.);
#161=VECTOR('',#570,10.);
#162=VECTOR('',#573,10.);
#163=VECTOR('',#574,10.);
#164=VECTOR('',#575,10.);
#165=VECTOR('',#578,10.);
#166=VECTOR('',#579,10.);
#167=VECTOR('',#582,10.);
#168=VECTOR('',#583,10.);
#169=VECTOR('',#586,10.);
#170=VECTOR('',#587,10.);
#171=VECTOR('',#590,10.);
#172=VECTOR('',#591,10.);
#173=VECTOR('',#594,10.);
#174=VECTOR('',#595,10.);
#175=VECTOR('',#598,10.);
#176=VECTOR('',#603,10.);
#177=VECTOR('',#604,10.);
#178=VECTOR('',#605,10.);
#179=VECTOR('',#606,10.);
#180=VECTOR('',#609,10.);
#181=VECTOR('',#610,10.);
#182=VECTOR('',#611,10.);
#183=VECTOR('',#614,10.);
#184=VECTOR('',#615,10.);
#185=VECTOR('',#616,10.);
#186=VECTOR('',#617,10.);
#187=VECTOR('',#618,10.);
#188=VECTOR('',#619,10.);
#189=VECTOR('',#622,10.);
#190=VECTOR('',#623,10.);
#191=VECTOR('',#626,10.);
#192=VECTOR('',#629,10.);
#193=VECTOR('',#630,10.);
#194=VECTOR('',#631,10.);
#195=VECTOR('',#632,10.);
#196=VECTOR('',#633,10.);
#197=VECTOR('',#634,10.);
#198=VECTOR('',#637,10.);
#199=VECTOR('',#638,10.);
#200=VECTOR('',#639,10.);
#201=VECTOR('',#642,10.);
#202=VECTOR('',#643,10.);
#203=VECTOR('',#646,10.);
#204=VECTOR('',#647,10.);
#205=VECTOR('',#650,10.);
#206=VECTOR('',#651,10.);
#207=VECTOR('',#654,10.);
#208=VECTOR('',#657,10.);
#209=VERTEX_POINT('',#664);
#210=VERTEX_POINT('',#665);
#211=VERTEX_POINT('',#667);
#212=VERTEX_POINT('',#669);
#213=VERTEX_POINT('',#673);
#214=VERTEX_POINT('',#675);
#215=VERTEX_POINT('',#679);
#216=VERTEX_POINT('',#683);
#217=VERTEX_POINT('',#689);
#218=VERTEX_POINT('',#690);
#219=VERTEX_POINT('',#692);
#220=VERTEX_POINT('',#694);
#221=VERTEX_POINT('',#696);
#222=VERTEX_POINT('',#698);
#223=VERTEX_POINT('',#700);
#224=VERTEX_POINT('',#704);
#225=VERTEX_POINT('',#706);
#226=VERTEX_POINT('',#710);
#227=VERTEX_POINT('',#714);
#228=VERTEX_POINT('',#718);
#229=VERTEX_POINT('',#722);
#230=VERTEX_POINT('',#726);
#231=VERTEX_POINT('',#733);
#232=VERTEX_POINT('',#734);
#233=VERTEX_POINT('',#736);
#234=VERTEX_POINT('',#738);
#235=VERTEX_POINT('',#742);
#236=VERTEX_POINT('',#744);
#237=VERTEX_POINT('',#748);
#238=VERTEX_POINT('',#751);
#239=VERTEX_POINT('',#752);
#240=VERTEX_POINT('',#754);
#241=VERTEX_POINT('',#756);
#242=VERTEX_POINT('',#760);
#243=VERTEX_POINT('',#766);
#244=VERTEX_POINT('',#768);
#245=VERTEX_POINT('',#770);
#246=VERTEX_POINT('',#772);
#247=VERTEX_POINT('',#774);
#248=VERTEX_POINT('',#778);
#249=VERTEX_POINT('',#780);
#250=VERTEX_POINT('',#784);
#251=VERTEX_POINT('',#788);
#252=VERTEX_POINT('',#792);
#253=EDGE_CURVE('',#209,#210,#77,.T.);
#254=EDGE_CURVE('',#211,#209,#78,.T.);
#255=EDGE_CURVE('',#212,#211,#79,.T.);
#256=EDGE_CURVE('',#210,#212,#80,.T.);
#257=EDGE_CURVE('',#211,#213,#81,.T.);
#258=EDGE_CURVE('',#213,#214,#82,.T.);
#259=EDGE_CURVE('',#212,#214,#83,.T.);
#260=EDGE_CURVE('',#215,#209,#84,.T.);
#261=EDGE_CURVE('',#215,#213,#85,.T.);
#262=EDGE_CURVE('',#216,#215,#86,.T.);
#263=EDGE_CURVE('',#214,#216,#87,.T.);
#264=EDGE_CURVE('',#216,#210,#88,.T.);
#265=EDGE_CURVE('',#217,#218,#89,.T.);
#266=EDGE_CURVE('',#218,#219,#90,.T.);
#267=EDGE_CURVE('',#219,#220,#91,.T.);
#268=EDGE_CURVE('',#220,#221,#92,.T.);
#269=EDGE_CURVE('',#221,#222,#93,.T.);
#270=EDGE_CURVE('',#222,#223,#94,.T.);
#271=EDGE_CURVE('',#217,#223,#95,.T.);
#272=EDGE_CURVE('',#224,#218,#96,.T.);
#273=EDGE_CURVE('',#225,#224,#97,.T.);
#274=EDGE_CURVE('',#219,#225,#98,.T.);
#275=EDGE_CURVE('',#226,#225,#99,.T.);
#276=EDGE_CURVE('',#220,#226,#100,.T.);
#277=EDGE_CURVE('',#227,#226,#101,.T.);
#278=EDGE_CURVE('',#221,#227,#102,.T.);
#279=EDGE_CURVE('',#228,#227,#103,.T.);
#280=EDGE_CURVE('',#222,#228,#104,.T.);
#281=EDGE_CURVE('',#229,#228,#105,.T.);
#282=EDGE_CURVE('',#223,#229,#106,.T.);
#283=EDGE_CURVE('',#230,#217,#107,.T.);
#284=EDGE_CURVE('',#224,#230,#108,.T.);
#285=EDGE_CURVE('',#229,#230,#109,.T.);
#286=EDGE_CURVE('',#231,#232,#110,.T.);
#287=EDGE_CURVE('',#233,#231,#111,.T.);
#288=EDGE_CURVE('',#234,#233,#112,.T.);
#289=EDGE_CURVE('',#232,#234,#113,.T.);
#290=EDGE_CURVE('',#235,#233,#114,.T.);
#291=EDGE_CURVE('',#235,#236,#115,.T.);
#292=EDGE_CURVE('',#234,#236,#116,.T.);
#293=EDGE_CURVE('',#231,#237,#117,.T.);
#294=EDGE_CURVE('',#237,#235,#118,.T.);
#295=EDGE_CURVE('',#238,#239,#119,.T.);
#296=EDGE_CURVE('',#239,#240,#120,.T.);
#297=EDGE_CURVE('',#240,#241,#121,.T.);
#298=EDGE_CURVE('',#241,#238,#122,.T.);
#299=EDGE_CURVE('',#242,#237,#123,.T.);
#300=EDGE_CURVE('',#236,#242,#124,.T.);
#301=EDGE_CURVE('',#242,#232,#125,.T.);
#302=EDGE_CURVE('',#239,#243,#126,.T.);
#303=EDGE_CURVE('',#244,#238,#127,.T.);
#304=EDGE_CURVE('',#245,#244,#128,.T.);
#305=EDGE_CURVE('',#246,#245,#129,.T.);
#306=EDGE_CURVE('',#247,#246,#130,.T.);
#307=EDGE_CURVE('',#243,#247,#131,.T.);
#308=EDGE_CURVE('',#248,#243,#132,.T.);
#309=EDGE_CURVE('',#247,#249,#133,.T.);
#310=EDGE_CURVE('',#249,#248,#134,.T.);
#311=EDGE_CURVE('',#246,#250,#135,.T.);
#312=EDGE_CURVE('',#250,#249,#136,.T.);
#313=EDGE_CURVE('',#245,#251,#137,.T.);
#314=EDGE_CURVE('',#251,#250,#138,.T.);
#315=EDGE_CURVE('',#244,#252,#139,.T.);
#316=EDGE_CURVE('',#252,#251,#140,.T.);
#317=EDGE_CURVE('',#241,#252,#141,.T.);
#318=EDGE_CURVE('',#248,#240,#142,.T.);
#319=ORIENTED_EDGE('',*,*,#253,.F.);
#320=ORIENTED_EDGE('',*,*,#254,.F.);
#321=ORIENTED_EDGE('',*,*,#255,.F.);
#322=ORIENTED_EDGE('',*,*,#256,.F.);
#323=ORIENTED_EDGE('',*,*,#255,.T.);
#324=ORIENTED_EDGE('',*,*,#257,.T.);
#325=ORIENTED_EDGE('',*,*,#258,.T.);
#326=ORIENTED_EDGE('',*,*,#259,.F.);
#327=ORIENTED_EDGE('',*,*,#254,.T.);
#328=ORIENTED_EDGE('',*,*,#260,.F.);
#329=ORIENTED_EDGE('',*,*,#261,.T.);
#330=ORIENTED_EDGE('',*,*,#257,.F.);
#331=ORIENTED_EDGE('',*,*,#258,.F.);
#332=ORIENTED_EDGE('',*,*,#261,.F.);
#333=ORIENTED_EDGE('',*,*,#262,.F.);
#334=ORIENTED_EDGE('',*,*,#263,.F.);
#335=ORIENTED_EDGE('',*,*,#253,.T.);
#336=ORIENTED_EDGE('',*,*,#264,.F.);
#337=ORIENTED_EDGE('',*,*,#262,.T.);
#338=ORIENTED_EDGE('',*,*,#260,.T.);
#339=ORIENTED_EDGE('',*,*,#265,.T.);
#340=ORIENTED_EDGE('',*,*,#266,.T.);
#341=ORIENTED_EDGE('',*,*,#267,.T.);
#342=ORIENTED_EDGE('',*,*,#268,.T.);
#343=ORIENTED_EDGE('',*,*,#269,.T.);
#344=ORIENTED_EDGE('',*,*,#270,.T.);
#345=ORIENTED_EDGE('',*,*,#271,.F.);
#346=ORIENTED_EDGE('',*,*,#272,.F.);
#347=ORIENTED_EDGE('',*,*,#273,.F.);
#348=ORIENTED_EDGE('',*,*,#274,.F.);
#349=ORIENTED_EDGE('',*,*,#266,.F.);
#350=ORIENTED_EDGE('',*,*,#274,.T.);
#351=ORIENTED_EDGE('',*,*,#275,.F.);
#352=ORIENTED_EDGE('',*,*,#276,.F.);
#353=ORIENTED_EDGE('',*,*,#267,.F.);
#354=ORIENTED_EDGE('',*,*,#276,.T.);
#355=ORIENTED_EDGE('',*,*,#277,.F.);
#356=ORIENTED_EDGE('',*,*,#278,.F.);
#357=ORIENTED_EDGE('',*,*,#268,.F.);
#358=ORIENTED_EDGE('',*,*,#278,.T.);
#359=ORIENTED_EDGE('',*,*,#279,.F.);
#360=ORIENTED_EDGE('',*,*,#280,.F.);
#361=ORIENTED_EDGE('',*,*,#269,.F.);
#362=ORIENTED_EDGE('',*,*,#280,.T.);
#363=ORIENTED_EDGE('',*,*,#281,.F.);
#364=ORIENTED_EDGE('',*,*,#282,.F.);
#365=ORIENTED_EDGE('',*,*,#270,.F.);
#366=ORIENTED_EDGE('',*,*,#283,.F.);
#367=ORIENTED_EDGE('',*,*,#284,.F.);
#368=ORIENTED_EDGE('',*,*,#272,.T.);
#369=ORIENTED_EDGE('',*,*,#265,.F.);
#370=ORIENTED_EDGE('',*,*,#284,.T.);
#371=ORIENTED_EDGE('',*,*,#285,.F.);
#372=ORIENTED_EDGE('',*,*,#281,.T.);
#373=ORIENTED_EDGE('',*,*,#279,.T.);
#374=ORIENTED_EDGE('',*,*,#277,.T.);
#375=ORIENTED_EDGE('',*,*,#275,.T.);
#376=ORIENTED_EDGE('',*,*,#273,.T.);
#377=ORIENTED_EDGE('',*,*,#256,.T.);
#378=ORIENTED_EDGE('',*,*,#259,.T.);
#379=ORIENTED_EDGE('',*,*,#263,.T.);
#380=ORIENTED_EDGE('',*,*,#264,.T.);
#381=ORIENTED_EDGE('',*,*,#271,.T.);
#382=ORIENTED_EDGE('',*,*,#282,.T.);
#383=ORIENTED_EDGE('',*,*,#285,.T.);
#384=ORIENTED_EDGE('',*,*,#283,.T.);
#385=ORIENTED_EDGE('',*,*,#286,.F.);
#386=ORIENTED_EDGE('',*,*,#287,.F.);
#387=ORIENTED_EDGE('',*,*,#288,.F.);
#388=ORIENTED_EDGE('',*,*,#289,.F.);
#389=ORIENTED_EDGE('',*,*,#288,.T.);
#390=ORIENTED_EDGE('',*,*,#290,.F.);
#391=ORIENTED_EDGE('',*,*,#291,.T.);
#392=ORIENTED_EDGE('',*,*,#292,.F.);
#393=ORIENTED_EDGE('',*,*,#287,.T.);
#394=ORIENTED_EDGE('',*,*,#293,.T.);
#395=ORIENTED_EDGE('',*,*,#294,.T.);
#396=ORIENTED_EDGE('',*,*,#290,.T.);
#397=ORIENTED_EDGE('',*,*,#295,.T.);
#398=ORIENTED_EDGE('',*,*,#296,.T.);
#399=ORIENTED_EDGE('',*,*,#297,.T.);
#400=ORIENTED_EDGE('',*,*,#298,.T.);
#401=ORIENTED_EDGE('',*,*,#291,.F.);
#402=ORIENTED_EDGE('',*,*,#294,.F.);
#403=ORIENTED_EDGE('',*,*,#299,.F.);
#404=ORIENTED_EDGE('',*,*,#300,.F.);
#405=ORIENTED_EDGE('',*,*,#286,.T.);
#406=ORIENTED_EDGE('',*,*,#301,.F.);
#407=ORIENTED_EDGE('',*,*,#299,.T.);
#408=ORIENTED_EDGE('',*,*,#293,.F.);
#409=ORIENTED_EDGE('',*,*,#302,.F.);
#410=ORIENTED_EDGE('',*,*,#295,.F.);
#411=ORIENTED_EDGE('',*,*,#303,.F.);
#412=ORIENTED_EDGE('',*,*,#304,.F.);
#413=ORIENTED_EDGE('',*,*,#305,.F.);
#414=ORIENTED_EDGE('',*,*,#306,.F.);
#415=ORIENTED_EDGE('',*,*,#307,.F.);
#416=ORIENTED_EDGE('',*,*,#308,.T.);
#417=ORIENTED_EDGE('',*,*,#307,.T.);
#418=ORIENTED_EDGE('',*,*,#309,.T.);
#419=ORIENTED_EDGE('',*,*,#310,.T.);
#420=ORIENTED_EDGE('',*,*,#309,.F.);
#421=ORIENTED_EDGE('',*,*,#306,.T.);
#422=ORIENTED_EDGE('',*,*,#311,.T.);
#423=ORIENTED_EDGE('',*,*,#312,.T.);
#424=ORIENTED_EDGE('',*,*,#311,.F.);
#425=ORIENTED_EDGE('',*,*,#305,.T.);
#426=ORIENTED_EDGE('',*,*,#313,.T.);
#427=ORIENTED_EDGE('',*,*,#314,.T.);
#428=ORIENTED_EDGE('',*,*,#313,.F.);
#429=ORIENTED_EDGE('',*,*,#304,.T.);
#430=ORIENTED_EDGE('',*,*,#315,.T.);
#431=ORIENTED_EDGE('',*,*,#316,.T.);
#432=ORIENTED_EDGE('',*,*,#315,.F.);
#433=ORIENTED_EDGE('',*,*,#303,.T.);
#434=ORIENTED_EDGE('',*,*,#298,.F.);
#435=ORIENTED_EDGE('',*,*,#317,.T.);
#436=ORIENTED_EDGE('',*,*,#296,.F.);
#437=ORIENTED_EDGE('',*,*,#302,.T.);
#438=ORIENTED_EDGE('',*,*,#308,.F.);
#439=ORIENTED_EDGE('',*,*,#318,.T.);
#440=ORIENTED_EDGE('',*,*,#318,.F.);
#441=ORIENTED_EDGE('',*,*,#310,.F.);
#442=ORIENTED_EDGE('',*,*,#312,.F.);
#443=ORIENTED_EDGE('',*,*,#314,.F.);
#444=ORIENTED_EDGE('',*,*,#316,.F.);
#445=ORIENTED_EDGE('',*,*,#317,.F.);
#446=ORIENTED_EDGE('',*,*,#297,.F.);
#447=ORIENTED_EDGE('',*,*,#289,.T.);
#448=ORIENTED_EDGE('',*,*,#292,.T.);
#449=ORIENTED_EDGE('',*,*,#300,.T.);
#450=ORIENTED_EDGE('',*,*,#301,.T.);
#451=PLANE('',#510);
#452=PLANE('',#511);
#453=PLANE('',#512);
#454=PLANE('',#513);
#455=PLANE('',#514);
#456=PLANE('',#515);
#457=PLANE('',#516);
#458=PLANE('',#517);
#459=PLANE('',#518);
#460=PLANE('',#519);
#461=PLANE('',#520);
#462=PLANE('',#521);
#463=PLANE('',#522);
#464=PLANE('',#523);
#465=PLANE('',#524);
#466=PLANE('',#525);
#467=PLANE('',#526);
#468=PLANE('',#527);
#469=PLANE('',#528);
#470=PLANE('',#529);
#471=PLANE('',#530);
#472=PLANE('',#531);
#473=PLANE('',#532);
#474=PLANE('',#533);
#475=PLANE('',#534);
#476=PLANE('',#535);
#477=PLANE('',#536);
#478=PLANE('',#537);
#479=ADVANCED_FACE('',(#19),#451,.F.);
#480=ADVANCED_FACE('',(#20),#452,.T.);
#481=ADVANCED_FACE('',(#21),#453,.F.);
#482=ADVANCED_FACE('',(#22),#454,.F.);
#483=ADVANCED_FACE('',(#23),#455,.T.);
#484=ADVANCED_FACE('',(#24),#456,.T.);
#485=ADVANCED_FACE('',(#25),#457,.T.);
#486=ADVANCED_FACE('',(#26),#458,.T.);
#487=ADVANCED_FACE('',(#27),#459,.T.);
#488=ADVANCED_FACE('',(#28),#460,.T.);
#489=ADVANCED_FACE('',(#29),#461,.T.);
#490=ADVANCED_FACE('',(#30),#462,.T.);
#491=ADVANCED_FACE('',(#31),#463,.T.);
#492=ADVANCED_FACE('',(#32,#17),#464,.T.);
#493=ADVANCED_FACE('',(#33),#465,.F.);
#494=ADVANCED_FACE('',(#34),#466,.T.);
#495=ADVANCED_FACE('',(#35,#18),#467,.F.);
#496=ADVANCED_FACE('',(#36),#468,.F.);
#497=ADVANCED_FACE('',(#37),#469,.T.);
#498=ADVANCED_FACE('',(#38),#470,.F.);
#499=ADVANCED_FACE('',(#39),#471,.F.);
#500=ADVANCED_FACE('',(#40),#472,.F.);
#501=ADVANCED_FACE('',(#41),#473,.F.);
#502=ADVANCED_FACE('',(#42),#474,.F.);
#503=ADVANCED_FACE('',(#43),#475,.F.);
#504=ADVANCED_FACE('',(#44),#476,.F.);
#505=ADVANCED_FACE('',(#45),#477,.F.);
#506=ADVANCED_FACE('',(#46),#478,.T.);
#507=CLOSED_SHELL('',(#479,#480,#481,#482,#483,#484,#485,#486,#487,#488,
#489,#490,#491,#492));
#508=CLOSED_SHELL('',(#493,#494,#495,#496,#497,#498,#499,#500,#501,#502,
#503,#504,#505,#506));
#509=AXIS2_PLACEMENT_3D('',#662,#538,#539);
#510=AXIS2_PLACEMENT_3D('',#663,#540,#541);
#511=AXIS2_PLACEMENT_3D('',#672,#546,#547);
#512=AXIS2_PLACEMENT_3D('',#678,#551,#552);
#513=AXIS2_PLACEMENT_3D('',#682,#555,#556);
#514=AXIS2_PLACEMENT_3D('',#686,#559,#560);
#515=AXIS2_PLACEMENT_3D('',#688,#562,#563);
#516=AXIS2_PLACEMENT_3D('',#703,#571,#572);
#517=AXIS2_PLACEMENT_3D('',#709,#576,#577);
#518=AXIS2_PLACEMENT_3D('',#713,#580,#581);
#519=AXIS2_PLACEMENT_3D('',#717,#584,#585);
#520=AXIS2_PLACEMENT_3D('',#721,#588,#589);
#521=AXIS2_PLACEMENT_3D('',#725,#592,#593);
#522=AXIS2_PLACEMENT_3D('',#729,#596,#597);
#523=AXIS2_PLACEMENT_3D('',#731,#599,#600);
#524=AXIS2_PLACEMENT_3D('',#732,#601,#602);
#525=AXIS2_PLACEMENT_3D('',#741,#607,#608);
#526=AXIS2_PLACEMENT_3D('',#747,#612,#613);
#527=AXIS2_PLACEMENT_3D('',#759,#620,#621);
#528=AXIS2_PLACEMENT_3D('',#763,#624,#625);
#529=AXIS2_PLACEMENT_3D('',#765,#627,#628);
#530=AXIS2_PLACEMENT_3D('',#777,#635,#636);
#531=AXIS2_PLACEMENT_3D('',#783,#640,#641);
#532=AXIS2_PLACEMENT_3D('',#787,#644,#645);
#533=AXIS2_PLACEMENT_3D('',#791,#648,#649);
#534=AXIS2_PLACEMENT_3D('',#795,#652,#653);
#535=AXIS2_PLACEMENT_3D('',#797,#655,#656);
#536=AXIS2_PLACEMENT_3D('',#799,#658,#659);
#537=AXIS2_PLACEMENT_3D('',#800,#660,#661);
#538=DIRECTION('axis',(0.,0.,1.));
#539=DIRECTION('refdir',(1.,0.,0.));
#540=DIRECTION('center_axis',(0.,0.,1.));
#541=DIRECTION('ref_axis',(1.,0.,0.));
#542=DIRECTION('',(0.,1.,0.));
#543=DIRECTION('',(1.,0.,0.));
#544=DIRECTION('',(0.,-1.,0.));
#545=DIRECTION('',(-1.,0.,0.));
#546=DIRECTION('center_axis',(-1.,0.,0.));
#547=DIRECTION('ref_axis',(0.,0.,1.));
#548=DIRECTION('',(0.,0.,1.));
#549=DIRECTION('',(0.,1.,0.));
#550=DIRECTION('',(0.,0.,1.));
#551=DIRECTION('center_axis',(0.,1.,0.));
#552=DIRECTION('ref_axis',(1.,0.,0.));
#553=DIRECTION('',(0.,0.,-1.));
#554=DIRECTION('',(-1.,0.,0.));
#555=DIRECTION('center_axis',(0.,0.,-1.));
#556=DIRECTION('ref_axis',(-1.,0.,0.));
#557=DIRECTION('',(0.,-1.,0.));
#558=DIRECTION('',(1.,0.,0.));
#559=DIRECTION('center_axis',(1.,0.,0.));
#560=DIRECTION('ref_axis',(0.,0.,-1.));
#561=DIRECTION('',(0.,0.,-1.));
#562=DIRECTION('center_axis',(-1.,0.,0.));
#563=DIRECTION('ref_axis',(0.,0.,1.));
#564=DIRECTION('',(0.,1.,1.01883780236257E-15));
#565=DIRECTION('',(0.,0.,1.));
#566=DIRECTION('',(0.,1.,0.));
#567=DIRECTION('',(0.,0.85749292571254,-0.514495755427534));
#568=DIRECTION('',(0.,0.,-1.));
#569=DIRECTION('',(0.,-1.,0.));
#570=DIRECTION('',(0.,0.,-1.));
#571=DIRECTION('center_axis',(0.,-1.,0.));
#572=DIRECTION('ref_axis',(0.,0.,-1.));
#573=DIRECTION('',(-1.,0.,0.));
#574=DIRECTION('',(0.,0.,-1.));
#575=DIRECTION('',(1.,0.,0.));
#576=DIRECTION('center_axis',(0.,0.,1.));
#577=DIRECTION('ref_axis',(0.,-1.,0.));
#578=DIRECTION('',(0.,-1.,0.));
#579=DIRECTION('',(1.,0.,0.));
#580=DIRECTION('center_axis',(0.,0.514495755427534,0.85749292571254));
#581=DIRECTION('ref_axis',(0.,-0.85749292571254,0.514495755427534));
#582=DIRECTION('',(0.,-0.85749292571254,0.514495755427534));
#583=DIRECTION('',(1.,0.,0.));
#584=DIRECTION('center_axis',(0.,1.,0.));
#585=DIRECTION('ref_axis',(0.,0.,1.));
#586=DIRECTION('',(0.,0.,1.));
#587=DIRECTION('',(1.,0.,0.));
#588=DIRECTION('center_axis',(0.,0.,-1.));
#589=DIRECTION('ref_axis',(0.,1.,0.));
#590=DIRECTION('',(0.,1.,0.));
#591=DIRECTION('',(1.,0.,0.));
#592=DIRECTION('center_axis',(0.,-1.01883780236257E-15,1.));
#593=DIRECTION('ref_axis',(0.,-1.,-1.01883780236257E-15));
#594=DIRECTION('',(-1.,0.,0.));
#595=DIRECTION('',(0.,-1.,-1.01883780236257E-15));
#596=DIRECTION('center_axis',(1.,0.,0.));
#597=DIRECTION('ref_axis',(0.,0.,-1.));
#598=DIRECTION('',(0.,0.,1.));
#599=DIRECTION('center_axis',(0.,1.,0.));
#600=DIRECTION('ref_axis',(0.,0.,1.));
#601=DIRECTION('center_axis',(0.,0.,1.));
#602=DIRECTION('ref_axis',(1.,0.,0.));
#603=DIRECTION('',(0.,1.,0.));
#604=DIRECTION('',(1.,0.,0.));
#605=DIRECTION('',(0.,-1.,0.));
#606=DIRECTION('',(-1.,0.,0.));
#607=DIRECTION('center_axis',(-1.,0.,0.));
#608=DIRECTION('ref_axis',(0.,0.,1.));
#609=DIRECTION('',(0.,0.,-1.));
#610=DIRECTION('',(0.,1.,0.));
#611=DIRECTION('',(0.,0.,1.));
#612=DIRECTION('center_axis',(0.,1.,0.));
#613=DIRECTION('ref_axis',(-1.,0.,0.));
#614=DIRECTION('',(0.,0.,1.));
#615=DIRECTION('',(-1.,0.,0.));
#616=DIRECTION('',(0.,0.,1.));
#617=DIRECTION('',(1.,0.,0.));
#618=DIRECTION('',(0.,0.,-1.));
#619=DIRECTION('',(-1.,0.,0.));
#620=DIRECTION('center_axis',(0.,0.,-1.));
#621=DIRECTION('ref_axis',(-1.,0.,0.));
#622=DIRECTION('',(0.,-1.,0.));
#623=DIRECTION('',(1.,0.,0.));
#624=DIRECTION('center_axis',(1.,0.,0.));
#625=DIRECTION('ref_axis',(0.,0.,-1.));
#626=DIRECTION('',(0.,0.,-1.));
#627=DIRECTION('center_axis',(-1.,0.,0.));
#628=DIRECTION('ref_axis',(0.,0.,1.));
#629=DIRECTION('',(0.,1.,1.01883780236257E-15));
#630=DIRECTION('',(0.,-1.,0.));
#631=DIRECTION('',(0.,0.,-1.));
#632=DIRECTION('',(0.,0.85749292571254,-0.514495755427534));
#633=DIRECTION('',(0.,1.,0.));
#634=DIRECTION('',(0.,0.,1.));
#635=DIRECTION('center_axis',(0.,-1.,0.));
#636=DIRECTION('ref_axis',(0.,0.,-1.));
#637=DIRECTION('',(-1.,0.,0.));
#638=DIRECTION('',(1.,0.,0.));
#639=DIRECTION('',(0.,0.,-1.));
#640=DIRECTION('center_axis',(0.,0.,1.));
#641=DIRECTION('ref_axis',(0.,-1.,0.));
#642=DIRECTION('',(1.,0.,0.));
#643=DIRECTION('',(0.,-1.,0.));
#644=DIRECTION('center_axis',(0.,0.514495755427534,0.85749292571254));
#645=DIRECTION('ref_axis',(0.,-0.85749292571254,0.514495755427534));
#646=DIRECTION('',(1.,0.,0.));
#647=DIRECTION('',(0.,-0.85749292571254,0.514495755427534));
#648=DIRECTION('center_axis',(0.,1.,0.));
#649=DIRECTION('ref_axis',(0.,0.,1.));
#650=DIRECTION('',(1.,0.,0.));
#651=DIRECTION('',(0.,0.,1.));
#652=DIRECTION('center_axis',(0.,0.,-1.));
#653=DIRECTION('ref_axis',(0.,1.,0.));
#654=DIRECTION('',(0.,1.,0.));
#655=DIRECTION('center_axis',(0.,-1.01883780236257E-15,1.));
#656=DIRECTION('ref_axis',(0.,-1.,-1.01883780236257E-15));
#657=DIRECTION('',(0.,-1.,-1.01883780236257E-15));
#658=DIRECTION('center_axis',(1.,0.,0.));
#659=DIRECTION('ref_axis',(0.,0.,-1.));
#660=DIRECTION('center_axis',(0.,1.,0.));
#661=DIRECTION('ref_axis',(0.,0.,1.));
#662=CARTESIAN_POINT('',(0.,0.,0.));
#663=CARTESIAN_POINT('Origin',(-20.,25.,3.));
#664=CARTESIAN_POINT('',(-17.,0.,3.));
#665=CARTESIAN_POINT('',(-17.,25.,3.));
#666=CARTESIAN_POINT('',(-17.,12.5,3.));
#667=CARTESIAN_POINT('',(-20.,0.,3.));
#668=CARTESIAN_POINT('',(-19.25,0.,3.));
#669=CARTESIAN_POINT('',(-20.,25.,3.));
#670=CARTESIAN_POINT('',(-20.,12.5,3.));
#671=CARTESIAN_POINT('',(-19.25,25.,3.));
#672=CARTESIAN_POINT('Origin',(-20.,0.,-10.));
#673=CARTESIAN_POINT('',(-20.,0.,25.));
#674=CARTESIAN_POINT('',(-20.,0.,-10.));
#675=CARTESIAN_POINT('',(-20.,25.,25.));
#676=CARTESIAN_POINT('',(-20.,11.8986254654678,25.));
#677=CARTESIAN_POINT('',(-20.,25.,-10.));
#678=CARTESIAN_POINT('Origin',(-18.5,0.,15.));
#679=CARTESIAN_POINT('',(-17.,0.,25.));
#680=CARTESIAN_POINT('',(-17.,0.,40.));
#681=CARTESIAN_POINT('',(-19.2019515684144,0.,25.));
#682=CARTESIAN_POINT('Origin',(-19.9039031368287,23.7972509309356,25.));
#683=CARTESIAN_POINT('',(-17.,25.,25.));
#684=CARTESIAN_POINT('',(-17.,11.8986254654678,25.));
#685=CARTESIAN_POINT('',(-19.2019515684144,25.,25.));
#686=CARTESIAN_POINT('Origin',(-17.,0.,40.));
#687=CARTESIAN_POINT('',(-17.,25.,40.));
#688=CARTESIAN_POINT('Origin',(-19.5,28.5697789594623,12.8898929298215));
#689=CARTESIAN_POINT('',(-19.5,25.000000372529,13.5003173265259));
#690=CARTESIAN_POINT('',(-19.5,29.3587825930186,13.5003173265259));
#691=CARTESIAN_POINT('',(-19.5,29.3587825930186,13.5003173265259));
#692=CARTESIAN_POINT('',(-19.5,29.3587825930186,14.4321117639942));
#693=CARTESIAN_POINT('',(-19.5,29.3587825930186,14.6127950674097));
#694=CARTESIAN_POINT('',(-19.5,29.6599214320445,14.4321117639942));
#695=CARTESIAN_POINT('',(-19.5,29.3587825930186,14.4321117639942));
#696=CARTESIAN_POINT('',(-19.5,32.1395575463956,12.9443300953835));
#697=CARTESIAN_POINT('',(-19.5,32.1395575463956,12.9443300953835));
#698=CARTESIAN_POINT('',(-19.5,32.1395575463956,11.3476740956488));
#699=CARTESIAN_POINT('',(-19.5,32.1395575463956,11.3476740956488));
#700=CARTESIAN_POINT('',(-19.5,25.000000372529,11.3476740956488));
#701=CARTESIAN_POINT('',(-19.5,25.000000372529,11.3476740956488));
#702=CARTESIAN_POINT('',(-19.5,25.,13.9449464649107));
#703=CARTESIAN_POINT('Origin',(-18.5,29.3587825930186,14.4321117639942));
#704=CARTESIAN_POINT('',(-17.5,29.3587825930186,13.5003173265259));
#705=CARTESIAN_POINT('',(-18.5,29.3587825930186,13.5003173265259));
#706=CARTESIAN_POINT('',(-17.5,29.3587825930186,14.4321117639942));
#707=CARTESIAN_POINT('',(-17.5,29.3587825930186,14.6127950674097));
#708=CARTESIAN_POINT('',(-18.5,29.3587825930186,14.4321117639942));
#709=CARTESIAN_POINT('Origin',(-18.5,29.6599214320445,14.4321117639942));
#710=CARTESIAN_POINT('',(-17.5,29.6599214320445,14.4321117639942));
#711=CARTESIAN_POINT('',(-17.5,29.3587825930186,14.4321117639942));
#712=CARTESIAN_POINT('',(-18.5,29.6599214320445,14.4321117639942));
#713=CARTESIAN_POINT('Origin',(-18.5,32.1395575463956,12.9443300953835));
#714=CARTESIAN_POINT('',(-17.5,32.1395575463956,12.9443300953835));
#715=CARTESIAN_POINT('',(-17.5,32.1395575463956,12.9443300953835));
#716=CARTESIAN_POINT('',(-18.5,32.1395575463956,12.9443300953835));
#717=CARTESIAN_POINT('Origin',(-18.5,32.1395575463956,11.3476740956488));
#718=CARTESIAN_POINT('',(-17.5,32.1395575463956,11.3476740956488));
#719=CARTESIAN_POINT('',(-17.5,32.1395575463956,11.3476740956488));
#720=CARTESIAN_POINT('',(-18.5,32.1395575463956,11.3476740956488));
#721=CARTESIAN_POINT('Origin',(-18.5,25.000000372529,11.3476740956488));
#722=CARTESIAN_POINT('',(-17.5,25.000000372529,11.3476740956488));
#723=CARTESIAN_POINT('',(-17.5,25.000000372529,11.3476740956488));
#724=CARTESIAN_POINT('',(-18.5,25.,11.3476740956488));
#725=CARTESIAN_POINT('Origin',(-18.5,29.3587825930186,13.5003173265259));
#726=CARTESIAN_POINT('',(-17.5,25.000000372529,13.5003173265259));
#727=CARTESIAN_POINT('',(-18.5,25.,13.5003173265259));
#728=CARTESIAN_POINT('',(-17.5,29.3587825930186,13.5003173265259));
#729=CARTESIAN_POINT('Origin',(-17.5,28.5697789594623,12.8898929298215));
#730=CARTESIAN_POINT('',(-17.5,25.,13.9449464649107));
#731=CARTESIAN_POINT('Origin',(-18.5,25.,15.));
#732=CARTESIAN_POINT('Origin',(-20.,25.,3.));
#733=CARTESIAN_POINT('',(-17.,25.,3.));
#734=CARTESIAN_POINT('',(-17.,50.,3.));
#735=CARTESIAN_POINT('',(-17.,25.,3.));
#736=CARTESIAN_POINT('',(-20.,25.,3.));
#737=CARTESIAN_POINT('',(-19.25,25.,3.));
#738=CARTESIAN_POINT('',(-20.,50.,3.));
#739=CARTESIAN_POINT('',(-20.,25.,3.));
#740=CARTESIAN_POINT('',(-19.25,50.,3.));
#741=CARTESIAN_POINT('Origin',(-20.,25.,-10.));
#742=CARTESIAN_POINT('',(-20.,25.,25.));
#743=CARTESIAN_POINT('',(-20.,25.,40.));
#744=CARTESIAN_POINT('',(-20.,50.,25.));
#745=CARTESIAN_POINT('',(-20.,24.3986254654678,25.));
#746=CARTESIAN_POINT('',(-20.,50.,40.));
#747=CARTESIAN_POINT('Origin',(-18.5,25.,15.));
#748=CARTESIAN_POINT('',(-17.,25.,25.));
#749=CARTESIAN_POINT('',(-17.,25.,-10.));
#750=CARTESIAN_POINT('',(-19.2019515684144,25.,25.));
#751=CARTESIAN_POINT('',(-19.5,25.000000372529,11.3476740956488));
#752=CARTESIAN_POINT('',(-19.5,25.000000372529,13.5003173265259));
#753=CARTESIAN_POINT('',(-19.5,25.,13.9449464649107));
#754=CARTESIAN_POINT('',(-17.5,25.000000372529,13.5003173265259));
#755=CARTESIAN_POINT('',(-18.5,25.,13.5003173265259));
#756=CARTESIAN_POINT('',(-17.5,25.000000372529,11.3476740956488));
#757=CARTESIAN_POINT('',(-17.5,25.,13.9449464649107));
#758=CARTESIAN_POINT('',(-18.5,25.,11.3476740956488));
#759=CARTESIAN_POINT('Origin',(-19.9039031368287,23.7972509309356,25.));
#760=CARTESIAN_POINT('',(-17.,50.,25.));
#761=CARTESIAN_POINT('',(-17.,24.3986254654678,25.));
#762=CARTESIAN_POINT('',(-19.2019515684144,50.,25.));
#763=CARTESIAN_POINT('Origin',(-17.,25.,40.));
#764=CARTESIAN_POINT('',(-17.,50.,-10.));
#765=CARTESIAN_POINT('Origin',(-19.5,28.5697789594623,12.8898929298215));
#766=CARTESIAN_POINT('',(-19.5,29.3587825930186,13.5003173265259));
#767=CARTESIAN_POINT('',(-19.5,29.3587825930186,13.5003173265259));
#768=CARTESIAN_POINT('',(-19.5,32.1395575463956,11.3476740956488));
#769=CARTESIAN_POINT('',(-19.5,25.000000372529,11.3476740956488));
#770=CARTESIAN_POINT('',(-19.5,32.1395575463956,12.9443300953835));
#771=CARTESIAN_POINT('',(-19.5,32.1395575463956,11.3476740956488));
#772=CARTESIAN_POINT('',(-19.5,29.6599214320445,14.4321117639942));
#773=CARTESIAN_POINT('',(-19.5,32.1395575463956,12.9443300953835));
#774=CARTESIAN_POINT('',(-19.5,29.3587825930186,14.4321117639942));
#775=CARTESIAN_POINT('',(-19.5,29.3587825930186,14.4321117639942));
#776=CARTESIAN_POINT('',(-19.5,29.3587825930186,14.6127950674097));
#777=CARTESIAN_POINT('Origin',(-18.5,29.3587825930186,14.4321117639942));
#778=CARTESIAN_POINT('',(-17.5,29.3587825930186,13.5003173265259));
#779=CARTESIAN_POINT('',(-18.5,29.3587825930186,13.5003173265259));
#780=CARTESIAN_POINT('',(-17.5,29.3587825930186,14.4321117639942));
#781=CARTESIAN_POINT('',(-18.5,29.3587825930186,14.4321117639942));
#782=CARTESIAN_POINT('',(-17.5,29.3587825930186,14.6127950674097));
#783=CARTESIAN_POINT('Origin',(-18.5,29.6599214320445,14.4321117639942));
#784=CARTESIAN_POINT('',(-17.5,29.6599214320445,14.4321117639942));
#785=CARTESIAN_POINT('',(-18.5,29.6599214320445,14.4321117639942));
#786=CARTESIAN_POINT('',(-17.5,29.3587825930186,14.4321117639942));
#787=CARTESIAN_POINT('Origin',(-18.5,32.1395575463956,12.9443300953835));
#788=CARTESIAN_POINT('',(-17.5,32.1395575463956,12.9443300953835));
#789=CARTESIAN_POINT('',(-18.5,32.1395575463956,12.9443300953835));
#790=CARTESIAN_POINT('',(-17.5,32.1395575463956,12.9443300953835));
#791=CARTESIAN_POINT('Origin',(-18.5,32.1395575463956,11.3476740956488));
#792=CARTESIAN_POINT('',(-17.5,32.1395575463956,11.3476740956488));
#793=CARTESIAN_POINT('',(-18.5,32.1395575463956,11.3476740956488));
#794=CARTESIAN_POINT('',(-17.5,32.1395575463956,11.3476740956488));
#795=CARTESIAN_POINT('Origin',(-18.5,25.000000372529,11.3476740956488));
#796=CARTESIAN_POINT('',(-17.5,25.000000372529,11.3476740956488));
#797=CARTESIAN_POINT('Origin',(-18.5,29.3587825930186,13.5003173265259));
#798=CARTESIAN_POINT('',(-17.5,29.3587825930186,13.5003173265259));
#799=CARTESIAN_POINT('Origin',(-17.5,28.5697789594623,12.8898929298215));
#800=CARTESIAN_POINT('Origin',(-18.5,50.,15.));
#801=UNCERTAINTY_MEASURE_WITH_UNIT(LENGTH_MEASURE(0.01),#805,
'DISTANCE_ACCURACY_VALUE',
'Maximum model space distance between geometric entities at asserted c
onnectivities');
#802=UNCERTAINTY_MEASURE_WITH_UNIT(LENGTH_MEASURE(0.01),#805,
'DISTANCE_ACCURACY_VALUE',
'Maximum model space distance between geometric entities at asserted c
onnectivities');
#803=(
GEOMETRIC_REPRESENTATION_CONTEXT(3)
GLOBAL_UNCERTAINTY_ASSIGNED_CONTEXT((#801))
GLOBAL_UNIT_ASSIGNED_CONTEXT((#805,#806,#807))
REPRESENTATION_CONTEXT('','3D')
);
#804=(
GEOMETRIC_REPRESENTATION_CONTEXT(3)
GLOBAL_UNCERTAINTY_ASSIGNED_CONTEXT((#802))
GLOBAL_UNIT_ASSIGNED_CONTEXT((#805,#806,#807))
REPRESENTATION_CONTEXT('','3D')
);
#805=(
LENGTH_UNIT()
NAMED_UNIT(*)
SI_UNIT(.MILLI.,.METRE.)
);
#806=(
NAMED_UNIT(*)
PLANE_ANGLE_UNIT()
SI_UNIT($,.RADIAN.)
);
#807=(
NAMED_UNIT(*)
SI_UNIT($,.STERADIAN.)
SOLID_ANGLE_UNIT()
);
#808=SHAPE_DEFINITION_REPRESENTATION(#809,#810);
#809=PRODUCT_DEFINITION_SHAPE('',$,#812);
#810=SHAPE_REPRESENTATION('',(#509),#803);
#811=PRODUCT_DEFINITION_CONTEXT('part definition',#816,'design');
#812=PRODUCT_DEFINITION('2026-07-13-20-56-17-160','snapFit_prototype',#813,
#811);
#813=PRODUCT_DEFINITION_FORMATION('',$,#818);
#814=PRODUCT_RELATED_PRODUCT_CATEGORY('snapFit_prototype',
'snapFit_prototype',(#818));
#815=APPLICATION_PROTOCOL_DEFINITION('international standard',
'automotive_design',2009,#816);
#816=APPLICATION_CONTEXT(
'Core Data for Automotive Mechanical Design Process');
#817=PRODUCT_CONTEXT('part definition',#816,'mechanical');
#818=PRODUCT('2026-07-13-20-56-17-160','snapFit_prototype',$,(#817));
#819=PRESENTATION_STYLE_ASSIGNMENT((#820));
#820=SURFACE_STYLE_USAGE(.BOTH.,#821);
#821=SURFACE_SIDE_STYLE('',(#822));
#822=SURFACE_STYLE_FILL_AREA(#823);
#823=FILL_AREA_STYLE('Steel - Satin',(#824));
#824=FILL_AREA_STYLE_COLOUR('Steel - Satin',#825);
#825=COLOUR_RGB('Steel - Satin',0.627450980392157,0.627450980392157,0.627450980392157);
ENDSEC;
END-ISO-10303-21;
